<?xml version="1.0" encoding="utf-8"?>
<!-- Generator: Adobe Illustrator 27.7.0, SVG Export Plug-In . SVG Version: 6.00 Build 0)  -->
<svg version="1.1" id="Layer_1" xmlns="http://www.w3.org/2000/svg" xmlns:xlink="http://www.w3.org/1999/xlink" x="0px" y="0px"
	 viewBox="0 0 16 16" style="enable-background:new 0 0 16 16;" xml:space="preserve">
<style type="text/css">
	.st0{fill:#555B40;}
</style>
<path class="st0" d="M2,0C0.9,0,0,0.9,0,2v12c0,1.1,0.9,2,2,2h12c1.1,0,2-0.9,2-2V2c0-1.1-0.9-2-2-2H2z M7.9,8.4H7V7.3h0.8
	c0.8,0,1.3-0.5,1.3-1.2c0-0.7-0.6-1.2-1.3-1.2C7.1,4.9,6.6,5.4,6.5,6H5.3c0-1.1,0.9-2.1,2.6-2.1c1.6,0,2.6,0.9,2.6,2.1
	c0,1.1-0.9,1.8-1.5,1.9v0.1c0.7,0.1,1.7,0.6,1.7,1.9c0,1.5-1.3,2.4-2.9,2.4c-1.7,0-2.7-1-2.8-2.1h1.2c0.1,0.6,0.7,1.1,1.5,1.1
	c1,0,1.6-0.6,1.6-1.4C9.5,9,8.8,8.4,7.9,8.4z"/>
</svg>
